<svg xmlns="http://www.w3.org/2000/svg" viewBox="0 0 640 420" role="img" aria-labelledby="t"><title id="t">CashArrow D Series industrial generator</title><defs><linearGradient id="b" x1="0" y1="0" x2="1" y2="1"><stop stop-color="#334155"/><stop offset=".55" stop-color="#64748b"/><stop offset="1" stop-color="#1e293b"/></linearGradient></defs><rect width="640" height="420" rx="34" fill="#eef2f6"/><rect x="27" y="70" width="586" height="252" rx="19" fill="url(#b)" stroke="#0f172a" stroke-width="7"/><rect x="52" y="101" width="223" height="175" rx="9" fill="#475569" stroke="#94a3b8" stroke-width="3"/><g stroke="#172033" stroke-width="9"><path d="M70 123h187M70 146h187M70 169h187M70 192h187M70 215h187M70 238h187M70 261h187"/></g><rect x="301" y="99" width="291" height="134" rx="10" fill="#111827" stroke="#94a3b8" stroke-width="3"/><rect x="323" y="119" width="100" height="48" rx="5" fill="#020617"/><text x="373" y="151" text-anchor="middle" font-family="Arial" font-size="21" font-weight="900" fill="#fbbf24">D-01</text><circle cx="480" cy="143" r="27" fill="#0b1220" stroke="#cbd5e1" stroke-width="6"/><circle cx="480" cy="143" r="5" fill="#ef4444"/><path d="M480 143l16-14" stroke="#ef4444" stroke-width="4"/><circle cx="550" cy="143" r="9" fill="#22c55e"/><circle cx="575" cy="143" r="9" fill="#f59e0b"/><g fill="#cbd5e1"><rect x="323" y="187" width="43" height="9" rx="3"/><rect x="373" y="187" width="43" height="9" rx="3"/><rect x="423" y="187" width="43" height="9" rx="3"/><rect x="473" y="187" width="43" height="9" rx="3"/><rect x="523" y="187" width="43" height="9" rx="3"/></g><rect x="108" y="39" width="154" height="31" rx="6" fill="#1e293b"/><path d="M128 39V14h114v25" fill="#475569" stroke="#1e293b" stroke-width="7"/><path d="M500 70V24h45v46M512 24V8h20" fill="#475569" stroke="#1e293b" stroke-width="7"/><rect x="19" y="322" width="602" height="32" rx="8" fill="#0f172a"/><circle cx="91" cy="375" r="21" fill="#0f172a"/><circle cx="549" cy="375" r="21" fill="#0f172a"/><rect x="59" y="7" width="128" height="32" rx="16" fill="#b45309"/><text x="123" y="29" text-anchor="middle" font-family="Arial" font-size="16" font-weight="900" fill="#fff">D SERIES</text></svg>