<svg xmlns="http://www.w3.org/2000/svg" viewBox="0 0 240 240"><defs><linearGradient id="g" x1="0" y1="0" x2="1" y2="1"><stop stop-color="#7b1d1d"/><stop offset="1" stop-color="#f59e0b"/></linearGradient></defs><rect width="240" height="240" rx="34" fill="#fff7e8"/><rect x="29" y="72" width="182" height="110" rx="22" fill="url(#g)"/><rect x="48" y="93" width="80" height="51" rx="9" fill="#35150d"/><circle cx="88" cy="119" r="18" fill="#ffd166"/><circle cx="88" cy="119" r="8" fill="#35150d"/><rect x="145" y="94" width="45" height="11" rx="5" fill="#fff"/><rect x="145" y="116" width="34" height="11" rx="5" fill="#ffe2a3"/><rect x="145" y="138" width="45" height="11" rx="5" fill="#ffe2a3"/><path d="M55 72V47c0-11 9-20 20-20h90c11 0 20 9 20 20v25" fill="#8f2920"/><path d="M81 27h78" stroke="#f59e0b" stroke-width="14" stroke-linecap="round"/><circle cx="49" cy="189" r="14" fill="#35150d"/><circle cx="191" cy="189" r="14" fill="#35150d"/><text x="120" y="217" text-anchor="middle" font-family="Arial" font-weight="900" font-size="18" fill="#b45309">D SERIES</text></svg>